<svg width="306" height="112" viewBox="0 0 306 112" fill="none" xmlns="http://www.w3.org/2000/svg">
<path d="M83.7263 65.6H109.766V69.84H83.7263V65.6ZM79.8463 76.76H113.366V81.12H79.8463V76.76ZM83.7263 51.56H109.486V55.88H89.0063V67.36H83.7263V51.56ZM143.083 48.48H148.403V85.64H143.083V48.48ZM137.283 61.84H144.163V66.12H137.283V61.84ZM118.683 72.68H121.723C127.723 72.68 132.483 72.56 137.843 71.64L138.323 75.96C132.843 76.88 127.883 77.08 121.723 77.08H118.683V72.68ZM118.603 51.64H135.283V65.56H123.963V74H118.683V61.36H130.043V55.88H118.603V51.64ZM161.72 51.16H165.76V55.36C165.76 61.72 163.44 67.88 157.52 70.44L154.8 66.52C159.8 64.32 161.72 59.68 161.72 55.36V51.16ZM163 51.16H167.04V55.36C167.04 59.6 168.84 64.44 174 66.76L171.72 71C165.24 68.32 163 61.64 163 55.36V51.16ZM176.44 51.16H180.44V55.36C180.44 61.72 178.2 68.36 171.72 71L169.48 66.76C174.6 64.48 176.44 59.68 176.44 55.36V51.16ZM177.76 51.16H181.8V55.36C181.8 59.84 183.68 64.36 188.72 66.52L185.96 70.44C180.04 67.92 177.76 61.88 177.76 55.36V51.16ZM155 76.68H188.52V81H155V76.68ZM217.957 48.52H223.277V69.96H217.957V48.52ZM194.717 50.84H199.997V66.16H194.717V50.84ZM194.717 63.56H197.917C203.557 63.56 209.197 63.2 215.077 62L215.677 66.28C209.597 67.56 203.757 67.92 197.917 67.92H194.717V63.56ZM210.757 70.48C218.517 70.48 223.437 73.32 223.437 78.04C223.437 82.76 218.517 85.56 210.757 85.56C202.997 85.56 198.077 82.76 198.077 78.04C198.077 73.32 202.997 70.48 210.757 70.48ZM210.757 74.72C205.957 74.72 203.397 75.76 203.397 78.04C203.397 80.28 205.957 81.36 210.757 81.36C215.557 81.36 218.117 80.28 218.117 78.04C218.117 75.76 215.557 74.72 210.757 74.72Z" fill="#2622F7"/>
<g clip-path="url(#clip0_1_636)">
<rect x="41" y="28" width="60" height="60" rx="30" fill="#2622F7"/>
<path d="M81.6391 65.4696H107.679V69.7096H81.6391V65.4696ZM77.7591 76.6296H111.279V80.9896H77.7591V76.6296ZM81.6391 51.4296H107.399V55.7496H86.9191V67.2296H81.6391V51.4296ZM140.996 48.3496H146.316V85.5096H140.996V48.3496ZM135.196 61.7096H142.076V65.9896H135.196V61.7096ZM116.596 72.5496H119.636C125.636 72.5496 130.396 72.4296 135.756 71.5096L136.236 75.8296C130.756 76.7496 125.796 76.9496 119.636 76.9496H116.596V72.5496ZM116.516 51.5096H133.196V65.4296H121.876V73.8696H116.596V61.2296H127.956V55.7496H116.516V51.5096ZM159.633 51.0296H163.673V55.2296C163.673 61.5896 161.353 67.7496 155.433 70.3096L152.713 66.3896C157.713 64.1896 159.633 59.5496 159.633 55.2296V51.0296ZM160.913 51.0296H164.953V55.2296C164.953 59.4696 166.753 64.3096 171.913 66.6296L169.633 70.8696C163.153 68.1896 160.913 61.5096 160.913 55.2296V51.0296ZM174.353 51.0296H178.353V55.2296C178.353 61.5896 176.113 68.2296 169.633 70.8696L167.393 66.6296C172.513 64.3496 174.353 59.5496 174.353 55.2296V51.0296ZM175.673 51.0296H179.713V55.2296C179.713 59.7096 181.593 64.2296 186.633 66.3896L183.873 70.3096C177.953 67.7896 175.673 61.7496 175.673 55.2296V51.0296ZM152.913 76.5496H186.433V80.8696H152.913V76.5496ZM215.87 48.3896H221.19V69.8296H215.87V48.3896ZM192.63 50.7096H197.91V66.0296H192.63V50.7096ZM192.63 63.4296H195.83C201.47 63.4296 207.11 63.0696 212.99 61.8696L213.59 66.1496C207.51 67.4296 201.67 67.7896 195.83 67.7896H192.63V63.4296ZM208.67 70.3496C216.43 70.3496 221.35 73.1896 221.35 77.9096C221.35 82.6296 216.43 85.4296 208.67 85.4296C200.91 85.4296 195.99 82.6296 195.99 77.9096C195.99 73.1896 200.91 70.3496 208.67 70.3496ZM208.67 74.5896C203.87 74.5896 201.31 75.6296 201.31 77.9096C201.31 80.1496 203.87 81.2296 208.67 81.2296C213.47 81.2296 216.03 80.1496 216.03 77.9096C216.03 75.6296 213.47 74.5896 208.67 74.5896Z" fill="white"/>
</g>
<defs>
<clipPath id="clip0_1_636">
<rect x="41" y="28" width="60" height="60" rx="30" fill="white"/>
</clipPath>
</defs>
</svg>
